<?xml version="1.0" encoding="UTF-8"?>
<svg version="1.1" xmlns="http://www.w3.org/2000/svg" width="408" height="408">
<path d="M0 0 C13.30773065 3.72616458 24.12323163 10.73992415 34.84765625 19.27734375 C35.45351562 19.74011719 36.059375 20.20289062 36.68359375 20.6796875 C41.7144922 24.63253628 47.72482856 29.72994589 48.84765625 36.27734375 C49.50765625 36.27734375 50.16765625 36.27734375 50.84765625 36.27734375 C56.33866654 43.2659023 59.3574654 51.84317562 61.84765625 60.27734375 C62.24041748 61.60004272 62.24041748 61.60004272 62.64111328 62.94946289 C64.67960566 70.35978943 65.39204169 77.29250322 65.34765625 84.96484375 C65.34338623 86.09390137 65.33911621 87.22295898 65.3347168 88.38623047 C65.094222 100.31239312 63.09055503 114.0531475 54.84765625 123.27734375 C51.22265625 124.02734375 51.22265625 124.02734375 47.84765625 123.27734375 C45.84765625 121.65234375 45.84765625 121.65234375 44.84765625 119.27734375 C45.09765625 116.33984375 45.09765625 116.33984375 45.84765625 113.27734375 C47.10534906 107.71036478 47.10817462 102.276634 47.16015625 96.58984375 C47.18916016 95.55150391 47.21816406 94.51316406 47.24804688 93.44335938 C47.31576737 85.1345753 45.58656321 78.63930668 41.16015625 71.58984375 C33.22247522 63.65216272 25.11268018 59.08631093 14.02734375 57.171875 C13.05265137 57.00147705 12.07795898 56.8310791 11.07373047 56.65551758 C10.33912598 56.53072021 9.60452148 56.40592285 8.84765625 56.27734375 C8.85318701 57.14643938 8.85318701 57.14643938 8.8588295 58.0330925 C8.94773287 72.22689092 9.01363139 86.42064686 9.05490494 100.61466599 C9.07540254 107.47921592 9.103273 114.34357836 9.14941406 121.20800781 C9.19402174 127.84756242 9.21687501 134.48697526 9.22716522 141.1266861 C9.23448707 143.64449352 9.24878208 146.16229182 9.27057648 148.68001556 C9.45983036 171.47468468 8.63572183 195.19396018 -7.15234375 213.27734375 C-11.74592154 217.74779471 -16.75377365 221.81888478 -22.15234375 225.27734375 C-22.70921875 225.63699219 -23.26609375 225.99664062 -23.83984375 226.3671875 C-34.75607844 232.60167499 -48.89807939 233.75180545 -60.90234375 230.65234375 C-61.58973633 230.47775635 -62.27712891 230.30316895 -62.98535156 230.12329102 C-70.89570745 227.98602665 -78.88887192 224.67739306 -85.15234375 219.27734375 C-85.15234375 218.61734375 -85.15234375 217.95734375 -85.15234375 217.27734375 C-85.74144531 217.01953125 -86.33054687 216.76171875 -86.9375 216.49609375 C-95.63267944 211.71144475 -100.05769072 201.10247043 -102.90234375 192.08984375 C-107.4508379 175.56621813 -105.08297173 159.72498721 -96.7734375 144.80078125 C-88.62414448 131.87737924 -76.29712114 122.95891705 -61.53125 118.9609375 C-47.56530877 116.13545806 -32.88086281 116.3406376 -20.15234375 123.27734375 C-18.92736085 120.82737794 -19.02495962 119.24094297 -19.02104187 116.50135803 C-19.01703369 115.4932457 -19.01302551 114.48513336 -19.00889587 113.44647217 C-19.00942459 112.33628723 -19.00995331 111.22610229 -19.01049805 110.08227539 C-19.00528641 108.33342293 -19.00528641 108.33342293 -18.99996948 106.54924011 C-18.99260312 104.01085452 -18.98726244 101.47246244 -18.98367882 98.93406868 C-18.97653393 94.92145223 -18.96123859 90.90892068 -18.94233704 86.89634705 C-18.93599962 85.52327448 -18.929674 84.15020185 -18.92335987 82.77712917 C-18.92019406 82.0894829 -18.91702825 81.40183662 -18.9137665 80.69335258 C-18.8716654 71.35002745 -18.83870442 62.00674376 -18.82641602 52.66333008 C-18.81804446 46.36285107 -18.79558863 40.06259211 -18.75706035 33.76222318 C-18.73726999 30.42700845 -18.72711142 27.09219731 -18.72989464 23.75691414 C-18.7322346 20.03820527 -18.71017959 16.32039458 -18.68237305 12.60180664 C-18.69227516 10.93956558 -18.69227516 10.93956558 -18.70237732 9.2437439 C-18.68367584 7.72734566 -18.68367584 7.72734566 -18.66459656 6.18031311 C-18.6622082 5.30075486 -18.65981985 4.42119661 -18.65735912 3.51498508 C-18.15234375 1.27734375 -18.15234375 1.27734375 -16.26656818 -0.5156641 C-11.41818881 -3.28356127 -5.1635126 -1.18370487 0 0 Z " fill="#F6537D" transform="translate(214.15234375,88.72265625)"/>
<path d="M0 0 C0.66 -0.66 1.32 -1.32 2 -2 C3.01405553 1.0421666 3.11207628 3.03526163 3.08520508 6.21484375 C3.0744268 7.81295898 3.0744268 7.81295898 3.06343079 9.44335938 C3.04170052 11.17295898 3.04170052 11.17295898 3.01953125 12.9375 C3.00540695 14.12794922 2.99128265 15.31839844 2.97673035 16.54492188 C2.9435808 19.07019263 2.9072205 21.59542295 2.86791992 24.12060547 C2.81311813 27.95673068 2.78426068 31.79250776 2.75585938 35.62890625 C2.72036711 38.08596139 2.68330662 40.54299448 2.64453125 43 C2.64016556 44.13687256 2.63579987 45.27374512 2.63130188 46.44506836 C2.47233385 54.0007417 1.02035619 60.08135278 -2 67 C-2.44601563 68.03253906 -2.89203125 69.06507813 -3.3515625 70.12890625 C-10.95467933 84.65878902 -23.51726705 93.38967684 -38.8125 98.5 C-44.05044696 99.963544 -48.5862912 100.3670311 -54 100 C-54 100.66 -54 101.32 -54 102 C-58.10839064 100.54997977 -61.50344613 98.6020866 -65 96 C-65 95.34 -65 94.68 -65 94 C-65.58910156 93.7421875 -66.17820312 93.484375 -66.78515625 93.21875 C-75.48033569 88.434101 -79.90534697 77.82512668 -82.75 68.8125 C-87.29849415 52.28887438 -84.93062798 36.44764346 -76.62109375 21.5234375 C-67.67984506 7.34412758 -54.21577344 -1.20760137 -38 -5 C-25.56913576 -7.64920058 -11.25253467 -5.85435925 0 0 Z " fill="#FEC642" transform="translate(194,212)"/>
<path d="M0 0 C-1.134375 0.45375 -2.26875 0.9075 -3.4375 1.375 C-7.04721692 2.57095806 -7.04721692 2.57095806 -8 5 C-6.6696875 4.938125 -6.6696875 4.938125 -5.3125 4.875 C-2.02722987 4.99897246 0.05449295 5.61387904 3 7 C3 7.66 3 8.32 3 9 C5.41645782 9.16687448 5.41645782 9.16687448 8 9 C8.66 8.34 9.32 7.68 10 7 C12.125 7.375 12.125 7.375 14 8 C14 8.99 14 9.98 14 11 C6.62356711 12.04836289 -0.13848513 12.12282078 -7.4375 10.75 C-8.42943359 10.56763794 -8.42943359 10.56763794 -9.44140625 10.3815918 C-13.67136371 9.5108756 -17.30793276 8.24976646 -21 6 C-21.33 5.01 -21.66 4.02 -22 3 C-21.11957031 2.87882812 -20.23914063 2.75765625 -19.33203125 2.6328125 C-18.17058594 2.46523438 -17.00914062 2.29765625 -15.8125 2.125 C-14.66394531 1.96257812 -13.51539063 1.80015625 -12.33203125 1.6328125 C-1.26588655 -0.46884687 -1.26588655 -0.46884687 0 0 Z " fill="#F05870" transform="translate(162,309)"/>
<path d="M0 0 C0.33 0.66 0.66 1.32 1 2 C-1.97 2.66 -4.94 3.32 -8 4 C-8 43.6 -8 83.2 -8 124 C-8.33 124 -8.66 124 -9 124 C-9.09338895 108.2754158 -9.16395235 92.55090629 -9.20724869 76.8261137 C-9.22788516 69.52501347 -9.25602617 62.22408542 -9.30175781 54.9230957 C-9.34159275 48.56048034 -9.36742493 42.19798965 -9.37635398 35.83525306 C-9.38157452 32.46531068 -9.39386632 29.09572502 -9.42292023 25.72589684 C-9.45181692 21.96637909 -9.45596161 18.20760837 -9.45410156 14.44799805 C-9.46848267 13.32734451 -9.48286377 12.20669098 -9.49768066 11.05207825 C-9.49218201 10.02984161 -9.48668335 9.00760498 -9.48101807 7.95439148 C-9.48470524 7.06486125 -9.48839241 6.17533102 -9.49219131 5.25884533 C-9 3 -9 3 -7.14181137 1.20206928 C-4.57834703 -0.23664833 -2.89523164 -0.2412693 0 0 Z " fill="#E05D80" transform="translate(205,87)"/>
<path d="M0 0 C0.33 0 0.66 0 1 0 C2.3442623 5.37704918 2.3442623 5.37704918 0.6875 8.375 C-1 10 -1 10 -3 10 C-3.06058594 10.71027344 -3.12117188 11.42054688 -3.18359375 12.15234375 C-3.30927734 13.53099609 -3.30927734 13.53099609 -3.4375 14.9375 C-3.51871094 15.85402344 -3.59992188 16.77054688 -3.68359375 17.71484375 C-4 20 -4 20 -5 21 C-5.08737645 22.85369611 -5.10698153 24.71067541 -5.09765625 26.56640625 C-5.09443359 27.69111328 -5.09121094 28.81582031 -5.08789062 29.97460938 C-5.07951172 31.15861328 -5.07113281 32.34261719 -5.0625 33.5625 C-5.05798828 34.75037109 -5.05347656 35.93824219 -5.04882812 37.16210938 C-5.03699675 40.10812226 -5.02051287 43.05403681 -5 46 C-10.01767966 36.57655283 -8.68322789 24.01467379 -6 14 C-4.24322018 9.22269229 -2.27678384 4.55356768 0 0 Z " fill="#F4D585" transform="translate(117,234)"/>
<path d="M0 0 C3.02419525 0.58803797 6.01758453 1.22678118 9 2 C9 2.66 9 3.32 9 4 C11.41645782 4.16687448 11.41645782 4.16687448 14 4 C14.66 3.34 15.32 2.68 16 2 C18.125 2.375 18.125 2.375 20 3 C20 3.99 20 4.98 20 6 C9.72466942 7.46036376 0.98353107 6.2684018 -9 4 C-9 3.67 -9 3.34 -9 3 C-5.7 2.67 -2.4 2.34 1 2 C0.67 1.34 0.34 0.68 0 0 Z " fill="#EE6589" transform="translate(156,314)"/>
<path d="M0 0 C0 0.33 0 0.66 0 1 C-5.75 1.125 -5.75 1.125 -8 0 C-10.02287811 -0.09743937 -12.04899627 -0.13076933 -14.07421875 -0.1328125 C-15.29947266 -0.13410156 -16.52472656 -0.13539063 -17.78710938 -0.13671875 C-19.07423828 -0.13285156 -20.36136719 -0.12898437 -21.6875 -0.125 C-22.95529297 -0.12886719 -24.22308594 -0.13273438 -25.52929688 -0.13671875 C-27.3768457 -0.13478516 -27.3768457 -0.13478516 -29.26171875 -0.1328125 C-30.38537842 -0.13168457 -31.50903809 -0.13055664 -32.66674805 -0.12939453 C-36.16865896 0.00654722 -39.54132127 0.44764262 -43 1 C-42.67 0.34 -42.34 -0.32 -42 -1 C-28.12155552 -5.05457773 -13.62296493 -5.20685438 0 0 Z " fill="#F4CE73" transform="translate(190,210)"/>
<path d="M0 0 C0.33 0 0.66 0 1 0 C1.04632389 7.90158503 1.0818694 15.80311339 1.10362434 23.70480061 C1.1140652 27.37380581 1.1282298 31.04271816 1.15087891 34.71166992 C1.17259669 38.25187786 1.18456636 41.79199644 1.18975449 45.33226585 C1.19525273 47.34143905 1.21086735 49.35057626 1.22659302 51.35969543 C1.22674408 52.58073471 1.22689514 53.80177399 1.22705078 55.05981445 C1.231492 56.13681107 1.23593323 57.21380768 1.24050903 58.32344055 C1 61 1 61 -1 64 C-1.66 64 -2.32 64 -3 64 C-2.67854004 62.78127197 -2.35708008 61.56254395 -2.02587891 60.30688477 C-0.68652225 54.24996712 -0.64767706 48.27173971 -0.5859375 42.08984375 C-0.56657135 40.88179581 -0.5472052 39.67374786 -0.5272522 38.42909241 C-0.4678258 34.59863177 -0.421219 30.76814047 -0.375 26.9375 C-0.33678624 24.32876347 -0.29773257 21.7200391 -0.2578125 19.11132812 C-0.16215478 12.74099394 -0.0770007 6.37058556 0 0 Z " fill="#F87763" transform="translate(196,213)"/>
<path d="M0 0 C2.0877193 3.43859649 2.0877193 3.43859649 1.6875 6 C1.3471875 6.99 1.3471875 6.99 1 8 C0.814375 8.7425 0.62875 9.485 0.4375 10.25 C0.293125 10.8275 0.14875 11.405 0 12 C2.97 12.495 2.97 12.495 6 13 C6.33 12.34 6.66 11.68 7 11 C6.01 11 5.02 11 4 11 C4.33 10.34 4.66 9.68 5 9 C6.65 9 8.3 9 10 9 C10.2165625 7.824375 10.2165625 7.824375 10.4375 6.625 C11 4 11 4 12 2 C12.66 2 13.32 2 14 2 C13.53390222 6.97170961 11.41652657 11.38301396 8 15 C4.375 15.75 4.375 15.75 1 15 C-1 13.375 -1 13.375 -2 11 C-1.75 8.0625 -1.75 8.0625 -1 5 C-0.814375 4.05125 -0.62875 3.1025 -0.4375 2.125 C-0.293125 1.42375 -0.14875 0.7225 0 0 Z " fill="#E56486" transform="translate(261,197)"/>
<path d="M0 0 C0.53109375 0.23589844 1.0621875 0.47179687 1.609375 0.71484375 C-3.015625 3.71484375 -3.015625 3.71484375 -6.390625 3.71484375 C-6.390625 4.37484375 -6.390625 5.03484375 -6.390625 5.71484375 C-10.73466672 10.2958332 -15.71113717 13.98868959 -21.390625 16.71484375 C-22.050625 16.38484375 -22.710625 16.05484375 -23.390625 15.71484375 C-18.52046266 10.18257474 -8.07282466 -0.96293497 0 0 Z " fill="#F6D272" transform="translate(145.390625,211.28515625)"/>
<path d="M0 0 C1.65 0 3.3 0 5 0 C1.74353697 2.72968225 -1.53300623 4.14192664 -5.5 5.625 C-6.6240625 6.05039062 -7.748125 6.47578125 -8.90625 6.9140625 C-13.05912847 8.37176479 -16.34411922 9.12729236 -20.75 9.0625 C-21.54921875 9.05347656 -22.3484375 9.04445313 -23.171875 9.03515625 C-23.77515625 9.02355469 -24.3784375 9.01195312 -25 9 C-25 9.66 -25 10.32 -25 11 C-28.37503669 9.8141763 -30.64722731 8.72426311 -33 6 C-32.46117187 6.16113281 -31.92234375 6.32226562 -31.3671875 6.48828125 C-24.73716023 7.92150497 -17.22619241 7.76719663 -11 5 C-11.66 4.34 -12.32 3.68 -13 3 C-12.39671875 3.01160156 -11.7934375 3.02320313 -11.171875 3.03515625 C-10.37265625 3.04417969 -9.5734375 3.05320312 -8.75 3.0625 C-7.96109375 3.07410156 -7.1721875 3.08570313 -6.359375 3.09765625 C-4.09308998 3.00385306 -2.1711105 2.63241063 0 2 C0 1.34 0 0.68 0 0 Z " fill="#FEB659" transform="translate(165,303)"/>
<path d="M0 0 C0.33 0.66 0.66 1.32 1 2 C-1.97 2.66 -4.94 3.32 -8 4 C-8 13.57 -8 23.14 -8 33 C-8.33 33 -8.66 33 -9 33 C-9.0989211 28.78253675 -9.17149012 24.56568879 -9.21972656 20.34741211 C-9.23983525 18.91272214 -9.26712673 17.47811407 -9.30175781 16.04370117 C-9.3503146 13.98075161 -9.37297406 11.91888569 -9.390625 9.85546875 C-9.41157227 8.61434326 -9.43251953 7.37321777 -9.45410156 6.09448242 C-9 3 -9 3 -7.14746094 1.08325195 C-4.59347093 -0.20506702 -2.82424692 -0.23535391 0 0 Z " fill="#DC5E81" transform="translate(205,87)"/>
<path d="M0 0 C0.66 0 1.32 0 2 0 C0.65678452 6.31311276 -2.24751589 10.79608336 -6 16 C-6.66 15.67 -7.32 15.34 -8 15 C-8 14.34 -8 13.68 -8 13 C-7.01 13 -6.02 13 -5 13 C-4.7834375 12.071875 -4.7834375 12.071875 -4.5625 11.125 C-4 9 -4 9 -3 7 C-3.66 6.67 -4.32 6.34 -5 6 C-4.34 5.34 -3.68 4.68 -3 4 C-2.01 4 -1.02 4 0 4 C0 2.68 0 1.36 0 0 Z " fill="#E87291" transform="translate(215,283)"/>
<path d="M0 0 C0 0.66 0 1.32 0 2 C-2.64 2.33 -5.28 2.66 -8 3 C-7.01 3.66 -6.02 4.32 -5 5 C-8 6 -8 6 -10.6875 4.6875 C-11.450625 4.130625 -12.21375 3.57375 -13 3 C-13 2.34 -13 1.68 -13 1 C-11.58366664 0.83052421 -10.16691467 0.66454493 -8.75 0.5 C-7.56664062 0.36078125 -7.56664062 0.36078125 -6.359375 0.21875 C-4 0 -4 0 0 0 Z " fill="#E86D74" transform="translate(153,311)"/>
<path d="M0 0 C5.84615385 4.30769231 5.84615385 4.30769231 7 8 C6.70865843 9.34313401 6.37974823 10.67913658 6 12 C5.66226562 11.50628906 5.32453125 11.01257813 4.9765625 10.50390625 C4.30753906 9.54291016 4.30753906 9.54291016 3.625 8.5625 C3.18414062 7.92441406 2.74328125 7.28632813 2.2890625 6.62890625 C1.07839147 4.86259072 1.07839147 4.86259072 -1 4 C-0.67 2.68 -0.34 1.36 0 0 Z " fill="#E97493" transform="translate(252,153)"/>
<path d="M0 0 C6.19887485 -0.37952295 10.4477112 0.1647887 16 3 C15.67 3.66 15.34 4.32 15 5 C11.48294042 4.34728444 8.10674923 3.48606976 4.6875 2.4375 C3.80449219 2.16808594 2.92148438 1.89867187 2.01171875 1.62109375 C1.34785156 1.41613281 0.68398437 1.21117187 0 1 C0 0.67 0 0.34 0 0 Z " fill="#E57793" transform="translate(229,145)"/>
<path d="M0 0 C1.32 0.66 2.64 1.32 4 2 C0.535 4.97 0.535 4.97 -3 8 C-3.36923077 3.44615385 -3.36923077 3.44615385 -1.5 1.1875 C-1.005 0.795625 -0.51 0.40375 0 0 Z " fill="#FEBC52" transform="translate(182,288)"/>
<path d="M0 0 C0.33 0 0.66 0 1 0 C1.05416188 1.60379341 1.09286638 3.20811406 1.125 4.8125 C1.14820313 5.70582031 1.17140625 6.59914063 1.1953125 7.51953125 C1 10 1 10 -1 13 C-1.66 13 -2.32 13 -3 13 C-2.01 8.71 -1.02 4.42 0 0 Z " fill="#ED615E" transform="translate(196,264)"/>
<path d="M0 0 C0.66 0.33 1.32 0.66 2 1 C1 2.9375 1 2.9375 -1 5 C-3.69924572 5.66549451 -6.20631637 5.81680763 -9 6 C-6.12050853 3.76039553 -3.23257974 1.70135776 0 0 Z " fill="#EE6162" transform="translate(171,302)"/>
<path d="M0 0 C0.33 0 0.66 0 1 0 C1.75 2.75 1.75 2.75 2 6 C0.0625 8.375 0.0625 8.375 -2 10 C-2.17942163 6.05272412 -2.09350689 3.4019487 0 0 Z " fill="#F8CD66" transform="translate(117,234)"/>
<path d="M0 0 C1.32087692 2.17556199 2.07112439 3.43100487 1.75 6 C0.96713323 8.08764473 0.05252193 10.03529239 -1 12 C-2.36884358 7.48281619 -1.47075246 4.41225737 0 0 Z " fill="#EC809E" transform="translate(261,197)"/>
<path d="M0 0 C4.62 0.66 9.24 1.32 14 2 C14 2.33 14 2.66 14 3 C12.02 3 10.04 3 8 3 C8 3.66 8 4.32 8 5 C4.35446828 3.7191375 2.83328987 2.83328987 0 0 Z " fill="#F8C476" transform="translate(132,309)"/>
<path d="M0 0 C2.375 0.3125 2.375 0.3125 5 1 C5.66 1.99 6.32 2.98 7 4 C6.67 4.99 6.34 5.98 6 7 C4.02 4.69 2.04 2.38 0 0 Z " fill="#F5D078" transform="translate(121,299)"/>
<path d="M0 0 C0.99 0.33 1.98 0.66 3 1 C3 2.32 3 3.64 3 5 C3.66 5 4.32 5 5 5 C5 5.99 5 6.98 5 8 C5.66 8.33 6.32 8.66 7 9 C6.01 9 5.02 9 4 9 C0 2.25 0 2.25 0 0 Z " fill="#F5D682" transform="translate(115,288)"/>
<path d="M0 0 C0.33 0.66 0.66 1.32 1 2 C-0.093125 2.309375 -1.18625 2.61875 -2.3125 2.9375 C-4.55407994 3.58337897 -6.7869351 4.2623117 -9 5 C-6.81610567 0.16423399 -5.20641855 -0.13701101 0 0 Z " fill="#EA8DA4" transform="translate(205,87)"/>
<path d="M0 0 C0.33 0 0.66 0 1 0 C1.3636198 4.24223102 0.5393228 6.58168085 -2 10 C-2.66 10 -3.32 10 -4 10 C-2.8905928 6.51329166 -1.73662334 3.22515763 0 0 Z " fill="#F06362" transform="translate(192,277)"/>
<path d="M0 0 C1.13643966 3.40931897 0.86747764 4.00335456 -0.4375 7.1875 C-0.86869141 8.26064453 -0.86869141 8.26064453 -1.30859375 9.35546875 C-1.53675781 9.89816406 -1.76492187 10.44085938 -2 11 C-2.33 11 -2.66 11 -3 11 C-3 9.02 -3 7.04 -3 5 C-2.34 5 -1.68 5 -1 5 C-0.67 3.35 -0.34 1.7 0 0 Z " fill="#FEB95C" transform="translate(194,268)"/>
<path d="M0 0 C3.40312738 1.05875074 6.01353231 2.00902154 9 4 C9 4.66 9 5.32 9 6 C7.68 5.67 6.36 5.34 5 5 C5 4.34 5 3.68 5 3 C3.35 2.67 1.7 2.34 0 2 C0 1.34 0 0.68 0 0 Z " fill="#E3748E" transform="translate(224,93)"/>
<path d="M0 0 C3.3 0 6.6 0 10 0 C8.515 1.485 8.515 1.485 7 3 C4.69 2.34 2.38 1.68 0 1 C0 0.67 0 0.34 0 0 Z " fill="#F9517A" transform="translate(143,313)"/>
<path d="M0 0 C0.66 0 1.32 0 2 0 C1.46930939 3.82097239 0.50298434 6.06171403 -2 9 C-1.125 2.25 -1.125 2.25 0 0 Z " fill="#E77B98" transform="translate(273,199)"/>
<path d="M0 0 C1.32 0.33 2.64 0.66 4 1 C1.69 2.65 -0.62 4.3 -3 6 C-3.33 5.34 -3.66 4.68 -4 4 C-2.25 1.9375 -2.25 1.9375 0 0 Z " fill="#FEB55B" transform="translate(174,297)"/>
</svg>
